<svg xmlns="http://www.w3.org/2000/svg" viewBox="0 0 100 100" preserveAspectRatio="xMidYMid" width="268" height="268" style="shape-rendering: auto; display: block; background: transparent;" xmlns:xlink="http://www.w3.org/1999/xlink"><g><g transform="rotate(0 50 50)">
  <rect fill="#7d2082" height="9" width="4" ry="4.5" rx="2" y="23.5" x="48">
    <animate repeatCount="indefinite" begin="-0.9871441689623507s" dur="1.0101010101010102s" keyTimes="0;1" values="1;0" attributeName="opacity"></animate>
  </rect>
</g><g transform="rotate(8.181818181818182 50 50)">
  <rect fill="#7d2082" height="9" width="4" ry="4.5" rx="2" y="23.5" x="48">
    <animate repeatCount="indefinite" begin="-0.9641873278236914s" dur="1.0101010101010102s" keyTimes="0;1" values="1;0" attributeName="opacity"></animate>
  </rect>
</g><g transform="rotate(16.363636363636363 50 50)">
  <rect fill="#7d2082" height="9" width="4" ry="4.5" rx="2" y="23.5" x="48">
    <animate repeatCount="indefinite" begin="-0.9412304866850321s" dur="1.0101010101010102s" keyTimes="0;1" values="1;0" attributeName="opacity"></animate>
  </rect>
</g><g transform="rotate(24.545454545454547 50 50)">
  <rect fill="#7d2082" height="9" width="4" ry="4.5" rx="2" y="23.5" x="48">
    <animate repeatCount="indefinite" begin="-0.9182736455463728s" dur="1.0101010101010102s" keyTimes="0;1" values="1;0" attributeName="opacity"></animate>
  </rect>
</g><g transform="rotate(32.72727272727273 50 50)">
  <rect fill="#7d2082" height="9" width="4" ry="4.5" rx="2" y="23.5" x="48">
    <animate repeatCount="indefinite" begin="-0.8953168044077134s" dur="1.0101010101010102s" keyTimes="0;1" values="1;0" attributeName="opacity"></animate>
  </rect>
</g><g transform="rotate(40.90909090909091 50 50)">
  <rect fill="#7d2082" height="9" width="4" ry="4.5" rx="2" y="23.5" x="48">
    <animate repeatCount="indefinite" begin="-0.8723599632690542s" dur="1.0101010101010102s" keyTimes="0;1" values="1;0" attributeName="opacity"></animate>
  </rect>
</g><g transform="rotate(49.09090909090909 50 50)">
  <rect fill="#7d2082" height="9" width="4" ry="4.5" rx="2" y="23.5" x="48">
    <animate repeatCount="indefinite" begin="-0.8494031221303948s" dur="1.0101010101010102s" keyTimes="0;1" values="1;0" attributeName="opacity"></animate>
  </rect>
</g><g transform="rotate(57.27272727272727 50 50)">
  <rect fill="#7d2082" height="9" width="4" ry="4.5" rx="2" y="23.5" x="48">
    <animate repeatCount="indefinite" begin="-0.8264462809917354s" dur="1.0101010101010102s" keyTimes="0;1" values="1;0" attributeName="opacity"></animate>
  </rect>
</g><g transform="rotate(65.45454545454545 50 50)">
  <rect fill="#7d2082" height="9" width="4" ry="4.5" rx="2" y="23.5" x="48">
    <animate repeatCount="indefinite" begin="-0.8034894398530762s" dur="1.0101010101010102s" keyTimes="0;1" values="1;0" attributeName="opacity"></animate>
  </rect>
</g><g transform="rotate(73.63636363636364 50 50)">
  <rect fill="#7d2082" height="9" width="4" ry="4.5" rx="2" y="23.5" x="48">
    <animate repeatCount="indefinite" begin="-0.7805325987144168s" dur="1.0101010101010102s" keyTimes="0;1" values="1;0" attributeName="opacity"></animate>
  </rect>
</g><g transform="rotate(81.81818181818181 50 50)">
  <rect fill="#7d2082" height="9" width="4" ry="4.5" rx="2" y="23.5" x="48">
    <animate repeatCount="indefinite" begin="-0.7575757575757576s" dur="1.0101010101010102s" keyTimes="0;1" values="1;0" attributeName="opacity"></animate>
  </rect>
</g><g transform="rotate(90 50 50)">
  <rect fill="#7d2082" height="9" width="4" ry="4.5" rx="2" y="23.5" x="48">
    <animate repeatCount="indefinite" begin="-0.7346189164370982s" dur="1.0101010101010102s" keyTimes="0;1" values="1;0" attributeName="opacity"></animate>
  </rect>
</g><g transform="rotate(98.18181818181819 50 50)">
  <rect fill="#7d2082" height="9" width="4" ry="4.5" rx="2" y="23.5" x="48">
    <animate repeatCount="indefinite" begin="-0.711662075298439s" dur="1.0101010101010102s" keyTimes="0;1" values="1;0" attributeName="opacity"></animate>
  </rect>
</g><g transform="rotate(106.36363636363636 50 50)">
  <rect fill="#7d2082" height="9" width="4" ry="4.5" rx="2" y="23.5" x="48">
    <animate repeatCount="indefinite" begin="-0.6887052341597796s" dur="1.0101010101010102s" keyTimes="0;1" values="1;0" attributeName="opacity"></animate>
  </rect>
</g><g transform="rotate(114.54545454545455 50 50)">
  <rect fill="#7d2082" height="9" width="4" ry="4.5" rx="2" y="23.5" x="48">
    <animate repeatCount="indefinite" begin="-0.6657483930211202s" dur="1.0101010101010102s" keyTimes="0;1" values="1;0" attributeName="opacity"></animate>
  </rect>
</g><g transform="rotate(122.72727272727273 50 50)">
  <rect fill="#7d2082" height="9" width="4" ry="4.5" rx="2" y="23.5" x="48">
    <animate repeatCount="indefinite" begin="-0.642791551882461s" dur="1.0101010101010102s" keyTimes="0;1" values="1;0" attributeName="opacity"></animate>
  </rect>
</g><g transform="rotate(130.9090909090909 50 50)">
  <rect fill="#7d2082" height="9" width="4" ry="4.5" rx="2" y="23.5" x="48">
    <animate repeatCount="indefinite" begin="-0.6198347107438016s" dur="1.0101010101010102s" keyTimes="0;1" values="1;0" attributeName="opacity"></animate>
  </rect>
</g><g transform="rotate(139.0909090909091 50 50)">
  <rect fill="#7d2082" height="9" width="4" ry="4.5" rx="2" y="23.5" x="48">
    <animate repeatCount="indefinite" begin="-0.5968778696051423s" dur="1.0101010101010102s" keyTimes="0;1" values="1;0" attributeName="opacity"></animate>
  </rect>
</g><g transform="rotate(147.27272727272728 50 50)">
  <rect fill="#7d2082" height="9" width="4" ry="4.5" rx="2" y="23.5" x="48">
    <animate repeatCount="indefinite" begin="-0.573921028466483s" dur="1.0101010101010102s" keyTimes="0;1" values="1;0" attributeName="opacity"></animate>
  </rect>
</g><g transform="rotate(155.45454545454547 50 50)">
  <rect fill="#7d2082" height="9" width="4" ry="4.5" rx="2" y="23.5" x="48">
    <animate repeatCount="indefinite" begin="-0.5509641873278237s" dur="1.0101010101010102s" keyTimes="0;1" values="1;0" attributeName="opacity"></animate>
  </rect>
</g><g transform="rotate(163.63636363636363 50 50)">
  <rect fill="#7d2082" height="9" width="4" ry="4.5" rx="2" y="23.5" x="48">
    <animate repeatCount="indefinite" begin="-0.5280073461891643s" dur="1.0101010101010102s" keyTimes="0;1" values="1;0" attributeName="opacity"></animate>
  </rect>
</g><g transform="rotate(171.8181818181818 50 50)">
  <rect fill="#7d2082" height="9" width="4" ry="4.5" rx="2" y="23.5" x="48">
    <animate repeatCount="indefinite" begin="-0.505050505050505s" dur="1.0101010101010102s" keyTimes="0;1" values="1;0" attributeName="opacity"></animate>
  </rect>
</g><g transform="rotate(180 50 50)">
  <rect fill="#7d2082" height="9" width="4" ry="4.5" rx="2" y="23.5" x="48">
    <animate repeatCount="indefinite" begin="-0.4820936639118457s" dur="1.0101010101010102s" keyTimes="0;1" values="1;0" attributeName="opacity"></animate>
  </rect>
</g><g transform="rotate(188.1818181818182 50 50)">
  <rect fill="#7d2082" height="9" width="4" ry="4.5" rx="2" y="23.5" x="48">
    <animate repeatCount="indefinite" begin="-0.4591368227731864s" dur="1.0101010101010102s" keyTimes="0;1" values="1;0" attributeName="opacity"></animate>
  </rect>
</g><g transform="rotate(196.36363636363637 50 50)">
  <rect fill="#7d2082" height="9" width="4" ry="4.5" rx="2" y="23.5" x="48">
    <animate repeatCount="indefinite" begin="-0.4361799816345271s" dur="1.0101010101010102s" keyTimes="0;1" values="1;0" attributeName="opacity"></animate>
  </rect>
</g><g transform="rotate(204.54545454545453 50 50)">
  <rect fill="#7d2082" height="9" width="4" ry="4.5" rx="2" y="23.5" x="48">
    <animate repeatCount="indefinite" begin="-0.4132231404958677s" dur="1.0101010101010102s" keyTimes="0;1" values="1;0" attributeName="opacity"></animate>
  </rect>
</g><g transform="rotate(212.72727272727272 50 50)">
  <rect fill="#7d2082" height="9" width="4" ry="4.5" rx="2" y="23.5" x="48">
    <animate repeatCount="indefinite" begin="-0.3902662993572084s" dur="1.0101010101010102s" keyTimes="0;1" values="1;0" attributeName="opacity"></animate>
  </rect>
</g><g transform="rotate(220.9090909090909 50 50)">
  <rect fill="#7d2082" height="9" width="4" ry="4.5" rx="2" y="23.5" x="48">
    <animate repeatCount="indefinite" begin="-0.3673094582185491s" dur="1.0101010101010102s" keyTimes="0;1" values="1;0" attributeName="opacity"></animate>
  </rect>
</g><g transform="rotate(229.0909090909091 50 50)">
  <rect fill="#7d2082" height="9" width="4" ry="4.5" rx="2" y="23.5" x="48">
    <animate repeatCount="indefinite" begin="-0.3443526170798898s" dur="1.0101010101010102s" keyTimes="0;1" values="1;0" attributeName="opacity"></animate>
  </rect>
</g><g transform="rotate(237.27272727272728 50 50)">
  <rect fill="#7d2082" height="9" width="4" ry="4.5" rx="2" y="23.5" x="48">
    <animate repeatCount="indefinite" begin="-0.3213957759412305s" dur="1.0101010101010102s" keyTimes="0;1" values="1;0" attributeName="opacity"></animate>
  </rect>
</g><g transform="rotate(245.45454545454547 50 50)">
  <rect fill="#7d2082" height="9" width="4" ry="4.5" rx="2" y="23.5" x="48">
    <animate repeatCount="indefinite" begin="-0.29843893480257117s" dur="1.0101010101010102s" keyTimes="0;1" values="1;0" attributeName="opacity"></animate>
  </rect>
</g><g transform="rotate(253.63636363636363 50 50)">
  <rect fill="#7d2082" height="9" width="4" ry="4.5" rx="2" y="23.5" x="48">
    <animate repeatCount="indefinite" begin="-0.27548209366391185s" dur="1.0101010101010102s" keyTimes="0;1" values="1;0" attributeName="opacity"></animate>
  </rect>
</g><g transform="rotate(261.8181818181818 50 50)">
  <rect fill="#7d2082" height="9" width="4" ry="4.5" rx="2" y="23.5" x="48">
    <animate repeatCount="indefinite" begin="-0.2525252525252525s" dur="1.0101010101010102s" keyTimes="0;1" values="1;0" attributeName="opacity"></animate>
  </rect>
</g><g transform="rotate(270 50 50)">
  <rect fill="#7d2082" height="9" width="4" ry="4.5" rx="2" y="23.5" x="48">
    <animate repeatCount="indefinite" begin="-0.2295684113865932s" dur="1.0101010101010102s" keyTimes="0;1" values="1;0" attributeName="opacity"></animate>
  </rect>
</g><g transform="rotate(278.1818181818182 50 50)">
  <rect fill="#7d2082" height="9" width="4" ry="4.5" rx="2" y="23.5" x="48">
    <animate repeatCount="indefinite" begin="-0.20661157024793386s" dur="1.0101010101010102s" keyTimes="0;1" values="1;0" attributeName="opacity"></animate>
  </rect>
</g><g transform="rotate(286.3636363636364 50 50)">
  <rect fill="#7d2082" height="9" width="4" ry="4.5" rx="2" y="23.5" x="48">
    <animate repeatCount="indefinite" begin="-0.18365472910927455s" dur="1.0101010101010102s" keyTimes="0;1" values="1;0" attributeName="opacity"></animate>
  </rect>
</g><g transform="rotate(294.54545454545456 50 50)">
  <rect fill="#7d2082" height="9" width="4" ry="4.5" rx="2" y="23.5" x="48">
    <animate repeatCount="indefinite" begin="-0.16069788797061524s" dur="1.0101010101010102s" keyTimes="0;1" values="1;0" attributeName="opacity"></animate>
  </rect>
</g><g transform="rotate(302.72727272727275 50 50)">
  <rect fill="#7d2082" height="9" width="4" ry="4.5" rx="2" y="23.5" x="48">
    <animate repeatCount="indefinite" begin="-0.13774104683195593s" dur="1.0101010101010102s" keyTimes="0;1" values="1;0" attributeName="opacity"></animate>
  </rect>
</g><g transform="rotate(310.90909090909093 50 50)">
  <rect fill="#7d2082" height="9" width="4" ry="4.5" rx="2" y="23.5" x="48">
    <animate repeatCount="indefinite" begin="-0.1147842056932966s" dur="1.0101010101010102s" keyTimes="0;1" values="1;0" attributeName="opacity"></animate>
  </rect>
</g><g transform="rotate(319.09090909090907 50 50)">
  <rect fill="#7d2082" height="9" width="4" ry="4.5" rx="2" y="23.5" x="48">
    <animate repeatCount="indefinite" begin="-0.09182736455463728s" dur="1.0101010101010102s" keyTimes="0;1" values="1;0" attributeName="opacity"></animate>
  </rect>
</g><g transform="rotate(327.27272727272725 50 50)">
  <rect fill="#7d2082" height="9" width="4" ry="4.5" rx="2" y="23.5" x="48">
    <animate repeatCount="indefinite" begin="-0.06887052341597796s" dur="1.0101010101010102s" keyTimes="0;1" values="1;0" attributeName="opacity"></animate>
  </rect>
</g><g transform="rotate(335.45454545454544 50 50)">
  <rect fill="#7d2082" height="9" width="4" ry="4.5" rx="2" y="23.5" x="48">
    <animate repeatCount="indefinite" begin="-0.04591368227731864s" dur="1.0101010101010102s" keyTimes="0;1" values="1;0" attributeName="opacity"></animate>
  </rect>
</g><g transform="rotate(343.6363636363636 50 50)">
  <rect fill="#7d2082" height="9" width="4" ry="4.5" rx="2" y="23.5" x="48">
    <animate repeatCount="indefinite" begin="-0.02295684113865932s" dur="1.0101010101010102s" keyTimes="0;1" values="1;0" attributeName="opacity"></animate>
  </rect>
</g><g transform="rotate(351.8181818181818 50 50)">
  <rect fill="#7d2082" height="9" width="4" ry="4.5" rx="2" y="23.5" x="48">
    <animate repeatCount="indefinite" begin="0s" dur="1.0101010101010102s" keyTimes="0;1" values="1;0" attributeName="opacity"></animate>
  </rect>
</g><g></g></g><!-- [ldio] generated by https://loading.io --></svg>